<?xml version="1.0" encoding="utf-8" ?><svg xmlns="http://www.w3.org/2000/svg" xmlns:xlink="http://www.w3.org/1999/xlink" width="1024" height="1024" viewBox="0 0 1024 1024"><defs><linearGradient id="gradient_0" gradientUnits="userSpaceOnUse" x1="121.75681" y1="162.29021" x2="360.18951" y2="327.86682"><stop offset="0" stop-color="#FAA00C"/><stop offset="1" stop-color="#FC5D13"/></linearGradient></defs><path fill="url(#gradient_0)" d="M175.06 107.551C182.265 106.953 192.548 107.308 200.097 107.337L243.501 107.454L305.487 107.363C314.873 107.327 324.282 107.076 333.657 107.162C337.827 107.811 342.315 106.084 342.429 111.983C343.559 170.832 342.055 229.657 342.514 288.519C342.666 307.943 342.863 327.834 342.46 347.225C342.54 350.798 343.629 365.75 341.251 367.96C337.478 371.467 306.293 369.963 299.947 369.944L178.927 369.945C166.678 369.934 154.429 369.861 142.181 369.725C137.434 369.704 126.65 369.974 122.443 369.357C120.896 362.797 121.541 338.388 121.526 330.63L121.417 245.447C121.465 218.616 120.111 188.737 120.995 162.271C122.982 159.319 125.439 156.737 127.99 154.269C143.699 139.07 159.024 122.293 175.06 107.551ZM297.81 361.631C309.588 361.643 322.716 361.795 334.403 361.321C334.573 356.787 334.349 351.995 334.494 347.289C333.877 326.708 334.39 303.406 334.415 282.615L334.468 173.454C334.474 154.358 334.741 134.617 334.455 115.575L181.6 115.546C181.699 126.623 181.727 137.701 181.683 148.778C181.717 154.655 184.283 168.25 175.28 168.389C160.186 168.623 145.104 167.94 129.974 168.517C129.742 206.402 129.767 244.288 130.048 282.173C130.08 307.595 129.297 336.402 130.111 361.346L250.458 361.42C266.027 361.453 282.342 361.241 297.81 361.631ZM136.571 159.853C146.977 160.107 162.994 160.192 173.303 159.679C173.274 148.452 173.528 132.303 172.865 121.438C166.893 127.323 160.738 133.722 154.768 139.627C150.452 143.897 138.982 154.374 136.051 158.969L136.203 159.656L136.571 159.853Z"/><path fill="#FB7118" d="M161.538 266.071C168.089 265.571 177.311 265.892 184.17 265.918L224.565 266.059L271.767 266.166C280.245 266.18 288.72 266.123 297.195 266.337C302.932 266.482 304.722 269.687 300.835 274.119C297.184 274.689 288.565 274.457 284.538 274.459L255.322 274.46L197.632 274.429C190.288 274.423 169.649 275.077 161.666 273.45C159.145 272.936 159.874 268.649 161.538 266.071Z"/><path fill="#FB7118" d="M161.727 241.6C168.692 241.003 179.344 241.321 186.472 241.343L229.022 241.502L271.316 241.603C277.435 241.577 297.543 240.275 301.856 243.53C303.293 246.336 302.329 248.113 299.927 249.885C282.773 249.43 166.052 250.795 162.157 249.149C161.18 248.736 160.522 247.75 160.306 246.759C159.875 244.788 160.705 243.215 161.727 241.6Z"/><path fill="#FB7118" d="M161.536 216.077C166.103 215.656 176.346 215.941 181.279 215.948L219.702 216.004L269.298 216.162C276.959 216.16 293.933 214.98 301.713 217.623C302.694 217.956 302.892 219.341 303.058 220.31C302.478 222.254 302.339 222.212 300.945 223.603C290.814 224.899 163.933 224.352 162.379 223.701C161.366 223.276 160.481 222.209 160.206 221.16C159.688 219.184 160.542 217.686 161.536 216.077Z"/><path fill="#FB7118" d="M162.147 191.515C165.495 191.211 172.604 191.532 176.238 191.545L206.838 191.577C217.258 191.584 297.046 190.88 301.016 192.27C303.411 194.777 302.617 196.37 300.667 198.777C296.531 199.676 287.841 199.476 283.203 199.497L256.121 199.568C226.264 199.626 196.328 199.688 166.468 199.623C165.19 199.62 162.942 199.573 161.943 198.992C161.146 198.527 160.329 197.34 160.317 196.415C160.283 193.81 160.561 193.28 162.147 191.515Z"/><path fill="#FB7118" d="M162.273 291.616C168.537 291.348 176.485 291.718 182.943 291.747L217.614 291.651L246.263 291.621C250.127 291.616 263.383 290.815 265.848 293.063C267.414 295.693 266.666 297.94 264.377 299.752C259.933 300.122 252.022 299.943 247.319 299.955L214.822 299.973L183.081 299.962C177.302 299.958 171.444 300.087 165.672 299.754C160.305 299.444 157.382 295.955 162.273 291.616Z"/><path fill="#FB7118" d="M201.193 166.002C208.394 165.27 299.333 165.795 300.508 166.4C301.301 166.809 302.19 167.98 302.325 168.862C302.635 170.89 301.572 172.37 300.379 173.884C288.744 173.898 204.736 174.947 199.779 172.956C197.857 170.357 199.214 168.089 201.193 166.002Z"/><path fill="#FB7118" d="M163.21 316.621C166.175 316.444 169.38 316.531 172.373 316.532C191.895 316.539 211.43 316.245 230.949 316.45C233.221 316.474 234.374 316.816 235.887 318.545C236.865 321.795 235.249 323.313 232.732 324.881L183.728 324.752C179.042 324.711 164.025 325.81 160.871 322.758C159.278 319.51 160.632 318.12 163.21 316.621Z"/><path fill="#FA453D" d="M281.63 291.58C286.864 291.339 298.366 290.23 302.078 293.454C303.377 296.444 302.681 298.127 300.073 299.878C294.393 299.785 283.799 301.325 279.746 298.288C278.26 295.27 278.977 293.502 281.63 291.58Z"/><path fill="#FA453D" d="M341.746 355.904C341.735 352.409 341.609 350.622 342.46 347.225C342.54 350.798 343.629 365.75 341.251 367.96C337.478 371.467 306.293 369.963 299.947 369.944C304.606 369.166 308.336 369.41 312.503 368.806C314.807 358.803 302.247 364.43 297.81 361.631C309.588 361.643 322.716 361.795 334.403 361.321C334.573 356.787 334.349 351.995 334.494 347.289C335.231 350.325 334.664 353.925 335.749 356.331C337.966 357.675 339.295 356.706 341.746 355.904Z"/><defs><linearGradient id="gradient_1" gradientUnits="userSpaceOnUse" x1="114.79964" y1="715.82568" x2="357.39398" y2="863.75598"><stop offset="0" stop-color="#FD6A1C"/><stop offset="1" stop-color="#F50F7A"/></linearGradient></defs><path fill="url(#gradient_1)" d="M149.867 653.443C154.977 652.45 171.242 652.704 177.002 652.685L231.976 652.708L283.741 652.679C293.219 652.654 302.937 652.452 312.251 652.919C321.165 653.367 332.074 662.624 333.309 671.536C334.484 680.015 334.067 690.749 334.062 699.399L333.716 756.747C334 791.499 334.057 826.252 333.888 861.005C333.789 873.678 334.188 886.56 333.78 899.203C333.636 903.664 331.929 908.754 329.229 912.358C325.15 917.704 319.067 921.153 312.385 921.909C306.324 922.61 293.193 922.242 286.679 922.23L238.978 922.206L181.016 922.421C172.131 922.424 161.878 922.946 153.114 922.155C126.178 919.724 130.725 891.404 130.774 873.032L130.757 827.837L130.55 750.654C130.525 737.626 130.202 722.644 130.579 709.783C130.141 701.492 130.73 692.678 130.46 684.345C130.223 677.041 131.082 669.623 135.195 663.367C138.525 658.194 143.826 654.609 149.867 653.443ZM138.914 742.69L139.442 857.118C139.499 866.366 139.495 875.614 139.43 884.862C139.404 891.338 138.125 902.86 142.614 908.022C145.907 911.809 149.737 914.045 154.816 914.141C165.867 914.351 176.956 914.234 188.022 914.198L251.442 914.031L290.709 914.088C297.372 914.115 304.511 914.359 311.129 913.953C318.246 913.516 325.923 904.977 325.979 897.925C326.101 882.437 326.035 866.962 326.016 851.482L326.001 763.485L325.964 706.019C325.942 696.231 326.472 685.15 325.471 675.525C323.69 658.408 305.953 661.168 294.37 661.219L263.761 661.245C227.423 661.154 190.046 660.735 153.819 661.159C148.798 662.577 143.946 664.734 141.356 669.567C136.477 678.668 140.118 728.423 138.914 742.69Z"/><defs><linearGradient id="gradient_2" gradientUnits="userSpaceOnUse" x1="159.6114" y1="675.67407" x2="305.4014" y2="719.78363"><stop offset="0" stop-color="#FB731B"/><stop offset="1" stop-color="#FA2C57"/></linearGradient></defs><path fill="url(#gradient_2)" d="M159.134 678.107C169.064 677.669 181.361 677.98 191.465 677.981L250.483 677.983L284.309 677.956C288.823 677.953 301.597 677.81 305.623 678.527C310.334 679.365 307.216 710.303 308.062 714.994C308.29 716.26 306.152 717.522 305.362 717.962C272.5 717.582 239.635 717.504 206.771 717.728L178.064 717.919C173.117 717.95 163.329 718.302 158.908 717.335C155.957 714.552 157.126 701.468 157.213 697.222C157.327 691.597 155.433 682.323 159.134 678.107ZM166.006 709.505C179.453 710.334 198.884 709.563 213.007 709.555L294.977 709.653C296.622 709.588 298.458 709.703 299.872 709.08C300.423 703.868 300.111 692.13 300.095 686.495C256.84 686.498 213.111 686.193 169.89 686.752C168.238 686.905 167.132 686.681 166.12 687.546C165.662 693.997 165.959 702.863 166.006 709.505Z"/><defs><linearGradient id="gradient_3" gradientUnits="userSpaceOnUse" x1="253.50633" y1="823.11572" x2="320.11096" y2="872.72681"><stop offset="0" stop-color="#FB244E"/><stop offset="1" stop-color="#F10987"/></linearGradient></defs><path fill="url(#gradient_3)" d="M268.16 802.569C273.035 802.312 303.545 802.178 307.131 803.738C309.17 809.452 307.417 878.565 308.073 889.92C308.188 891.918 307.109 892.653 305.714 893.959C299.319 894.124 271.892 894.718 267.393 893.123C264.49 889.947 265.662 867.107 265.677 861.963L265.542 818.065C265.569 812.637 264.62 806.075 268.16 802.569ZM274.056 885.492C281.595 886.322 291.963 885.689 299.69 885.652C300.51 861.596 299.6 835.106 299.511 810.795C292.331 810.395 281.328 810.376 274.005 810.628L274.056 885.492Z"/><defs><linearGradient id="gradient_4" gradientUnits="userSpaceOnUse" x1="277.77179" y1="746.8288" x2="291.87125" y2="784.04877"><stop offset="0" stop-color="#FA4148"/><stop offset="1" stop-color="#F9225F"/></linearGradient></defs><path fill="url(#gradient_4)" d="M282.327 745.098C293.718 743.566 304.187 751.576 305.688 762.971C307.189 774.366 299.15 784.813 287.751 786.282C276.396 787.746 265.998 779.745 264.503 768.394C263.009 757.044 270.981 746.624 282.327 745.098ZM287.747 777.977C292.084 777.056 295.591 773.873 296.927 769.645C298.263 765.418 297.222 760.798 294.202 757.552C291.182 754.305 286.65 752.934 282.337 753.962C275.781 755.524 271.701 762.067 273.182 768.642C274.663 775.216 281.155 779.377 287.747 777.977Z"/><path fill="#FA453D" d="M174.686 745.719C185.857 744.16 196.196 751.903 197.844 763.061C199.492 774.22 191.833 784.62 180.687 786.358C169.415 788.115 158.871 780.349 157.204 769.063C155.537 757.777 163.387 747.295 174.686 745.719ZM178.746 777.963C183.049 777.564 186.806 774.882 188.581 770.942C190.356 767.002 189.875 762.411 187.322 758.924C184.769 755.437 180.539 753.592 176.246 754.094C169.719 754.856 165.019 760.727 165.704 767.263C166.388 773.799 172.202 778.569 178.746 777.963Z"/><path fill="#FA453D" d="M176.472 800.857C187.735 800.157 197.45 808.683 198.219 819.942C198.988 831.201 190.522 840.968 179.269 841.806C167.916 842.652 158.045 834.096 157.269 822.738C156.494 811.381 165.11 801.563 176.472 800.857ZM178.25 833.533C184.891 833.192 190.047 827.614 189.865 820.967C189.683 814.32 184.229 809.032 177.58 809.056C173.135 809.071 169.047 811.494 166.9 815.386C164.753 819.278 164.883 824.028 167.24 827.797C169.597 831.565 173.811 833.761 178.25 833.533Z"/><path fill="#F83151" d="M175.276 854.621C186.497 853.119 196.812 860.993 198.322 872.213C199.833 883.432 191.968 893.754 180.75 895.274C169.518 896.796 159.182 888.919 157.669 877.687C156.157 866.454 164.042 856.124 175.276 854.621ZM180.353 886.571C186.833 885.359 191.114 879.139 189.934 872.653C188.753 866.168 182.555 861.856 176.064 863.004C169.527 864.16 165.178 870.412 166.366 876.943C167.555 883.474 173.829 887.792 180.353 886.571Z"/><path fill="#FA453D" d="M227.784 745.597C235.082 744.507 242.402 747.432 246.939 753.252C251.477 759.071 252.529 766.883 249.693 773.695C246.856 780.508 240.571 785.265 233.244 786.145C222.14 787.478 212.022 779.647 210.53 768.562C209.037 757.478 216.722 747.249 227.784 745.597ZM232.717 777.791C238.589 776.819 242.871 771.703 242.794 765.751C242.748 762.247 241.179 758.937 238.496 756.684C235.813 754.43 232.282 753.457 228.824 754.016C222.248 755.081 217.785 761.28 218.861 767.854C219.938 774.427 226.145 778.879 232.717 777.791Z"/><path fill="#F83151" d="M227.394 801.253C238.492 799.467 248.933 807.022 250.708 818.121C252.482 829.221 244.916 839.654 233.815 841.418C222.73 843.178 212.315 835.626 210.543 824.543C208.771 813.459 216.313 803.036 227.394 801.253ZM232.748 833.339C239.374 832.008 243.68 825.574 242.384 818.94C241.088 812.307 234.677 807.967 228.037 809.228C221.347 810.498 216.967 816.968 218.273 823.651C219.578 830.334 226.072 834.68 232.748 833.339Z"/><path fill="#F83151" d="M228.727 854.669C239.769 853.541 249.659 861.516 250.896 872.546C252.134 883.576 244.257 893.544 233.241 894.892C222.068 896.258 211.926 888.246 210.671 877.06C209.416 865.873 217.529 855.813 228.727 854.669ZM232.732 886.661C239.244 885.657 243.739 879.602 242.815 873.078C241.891 866.553 235.893 861.984 229.357 862.827C225.057 863.382 221.387 866.206 219.751 870.221C218.114 874.236 218.763 878.821 221.45 882.224C224.137 885.627 228.446 887.322 232.732 886.661Z"/><path fill="#FB7118" d="M130.579 709.783C130.141 701.492 130.73 692.678 130.46 684.345C130.223 677.041 131.082 669.623 135.195 663.367C138.525 658.194 143.826 654.609 149.867 653.443C152.755 654.468 155.149 655.13 156.818 657.8C156.771 659.616 157.011 658.794 156.05 660.354L153.819 661.159C148.798 662.577 143.946 664.734 141.356 669.567C136.477 678.668 140.118 728.423 138.914 742.69C138.249 744.67 138.03 749.928 137.5 752.827C135.746 743.445 135.374 734.206 132.416 724.79C131.064 720.484 132.682 714.427 130.579 709.783Z"/><defs><linearGradient id="gradient_5" gradientUnits="userSpaceOnUse" x1="420.63818" y1="687.24371" x2="588.85724" y2="901.29944"><stop offset="0" stop-color="#FD364C"/><stop offset="1" stop-color="#DF05B3"/></linearGradient></defs><path fill="url(#gradient_5)" d="M456.873 904.461L423.681 904.537C417.472 904.552 407.087 904.969 401.41 903.614C395.832 902.298 390.714 899.5 386.597 895.515C382.099 891.055 379.06 885.337 377.879 879.115C376.844 873.906 377.291 846.088 377.319 839.426C377.56 813.29 377.508 787.153 377.164 761.019C376.791 736.128 373.191 706.977 407.994 705.715C413.693 705.508 419.452 705.594 425.156 705.565L472.136 705.537L614.664 705.302C625.246 705.332 632.28 706.862 639.955 714.485C649.418 723.885 647.999 734.614 647.92 746.86L647.731 774.336L647.903 852.688C647.972 865.435 650.081 882.059 642.243 892.802C632.712 905.865 619.536 904.684 605.099 904.66L574.05 904.608L456.873 904.461ZM639.63 856.025L639.772 769.741C639.777 756.845 640.099 742.739 639.302 729.833C638.845 722.433 629.225 714.646 622.025 713.961C614.839 713.276 606.802 713.531 599.328 713.536L554.268 713.591C506.12 713.597 458.009 713.549 409.827 713.978C398.954 714.075 388.264 719.257 386.069 731.458C385.063 737.048 385.589 745.767 385.584 751.665L385.576 785.337L385.505 844.011C385.491 854.245 385.423 864.549 385.559 874.78C385.517 880.667 388.786 886.379 393.048 890.238C395.224 892.207 399.787 895.351 402.724 895.772C412.635 897.193 423.879 896.678 433.892 896.677L487.248 896.735C518.802 896.299 551.19 896.584 582.795 896.616L607.824 896.659C619.26 896.677 628.711 898.118 635.844 887.195C641.324 878.802 639.684 865.78 639.63 856.025Z"/><path fill="#F0157F" d="M473.535 741.585C476.079 741.36 487.951 741.236 490.172 741.417C498.559 742.1 549.595 739.477 552.917 743.103C554.27 747.544 554.392 782.392 552.777 786.38C549.102 787.707 518.339 786.914 512.497 787.022C504.812 787.163 479.891 787.799 473.538 785.552C471.246 782.934 472.243 765.802 472.157 761.543C472.057 756.55 470.963 745.469 473.535 741.585ZM480.622 778.41C500.331 778.472 526.29 779.182 545.547 778.249L545.5 749.546L480.616 749.507C480.635 758.436 480.202 769.778 480.622 778.41Z"/><path fill="#DA06B3" d="M618.145 868.245C626.645 868.991 623.974 876.282 616.993 876.543C609.241 876.833 601.504 876.423 593.749 876.482L523.875 876.531C520.589 876.661 518.48 876.198 518.235 872.368C519.252 869.283 522.071 868.376 525.108 868.376C534.2 868.377 543.281 868.524 552.377 868.513C574.3 868.564 596.223 868.475 618.145 868.245Z"/><path fill="#F0157F" d="M524.129 847.729C545.583 847.971 567.039 848.059 588.495 847.993C595.922 847.987 613.316 847.222 621.132 848.822C622.104 849.021 622.536 850.425 622.826 851.369C622.272 855.214 620.408 855.603 617.101 855.698C596.541 855.823 575.98 855.786 555.42 855.586C546.681 855.551 529.059 856.494 519.96 854.587C518.926 854.37 518.326 853.192 517.979 852.215C518.949 848.348 520.438 848.039 524.129 847.729Z"/><path fill="#F0157F" d="M561.831 826.625C580.08 825.403 600.824 826.99 619.268 826.575C620.555 826.546 621.821 827.393 622.755 828.209C623.939 831.456 622.227 832.743 619.774 834.501C602.131 835.639 583.245 834.279 565.519 834.854C563.055 834.934 560.395 834.697 558.646 832.825C557.544 829.675 559.325 828.011 561.831 826.625Z"/><path fill="#F0157F" d="M541.633 826.159C544.036 825.294 546.686 826.529 547.57 828.925C548.454 831.322 547.239 833.982 544.85 834.884C542.435 835.796 539.739 834.565 538.845 832.143C537.952 829.72 539.203 827.034 541.633 826.159Z"/><path fill="#F0157F" d="M521.003 826.284C523.264 825.413 525.806 826.524 526.701 828.777C527.596 831.029 526.512 833.582 524.269 834.501C522.797 835.105 521.115 834.871 519.863 833.889C518.612 832.907 517.984 831.328 518.22 829.755C518.455 828.182 519.518 826.856 521.003 826.284Z"/><defs><linearGradient id="gradient_6" gradientUnits="userSpaceOnUse" x1="554.81232" y1="871.43823" x2="564.06799" y2="915.65106"><stop offset="0" stop-color="#D915BB"/><stop offset="1" stop-color="#AD24ED"/></linearGradient></defs><path fill="url(#gradient_6)" d="M639.63 856.025C639.873 855.293 640.08 854.882 640.399 854.182C642.885 853.957 643.196 856.247 646.077 856.21C647.644 854.998 647.204 855.051 647.903 852.688C647.972 865.435 650.081 882.059 642.243 892.802C632.712 905.865 619.536 904.684 605.099 904.66L574.05 904.608L456.873 904.461L456.249 903.763C457.173 902.686 462.829 903.793 464.995 903.24C467.354 902.637 468.872 899.643 470.345 897.503C463.186 897.463 455.392 897.853 448.343 897.439C448.724 897.069 483.984 896.773 487.248 896.735C518.802 896.299 551.19 896.584 582.795 896.616L607.824 896.659C619.26 896.677 628.711 898.118 635.844 887.195C641.324 878.802 639.684 865.78 639.63 856.025Z"/><path fill="#B515E5" d="M857.074 680.808C856.907 676.787 856.063 669.619 861.667 668.83C866.471 670.295 865.495 676.476 865.023 680.269C875.273 680.238 881.043 681.068 888.801 688.365C899.043 697.998 897.1 711.957 897.226 724.902L897.457 760.796C897.582 802.863 897.409 844.935 897.456 887.002C897.462 892.611 896.828 897.295 894.612 902.369C889.738 913.531 879.164 921.892 866.766 922.439C860.746 922.705 854.631 922.611 848.509 922.563C838.684 922.473 828.858 922.433 819.032 922.442L753.827 922.479C742.809 922.492 731.701 922.561 720.714 922.498C712.599 922.452 705.77 920.021 700.213 913.961C691.803 904.792 691.332 897.682 691.537 886.109C690.712 847.208 691.496 805.515 691.478 766.43C691.506 754.333 691.46 742.236 691.342 730.14C691.083 703.75 687.618 680.786 722.925 680.437C723.101 676.042 722.359 672.267 726.918 669.992C732.632 670.227 731.993 676.366 731.969 680.528C744.247 680.655 756.526 680.662 768.804 680.551C768.731 676.24 767.952 671.621 772.526 669.436C778.458 669.61 777.421 676.358 777.23 680.463L811.555 680.37C811.476 676.323 810.866 670.016 815.999 668.7C821.396 669.623 820.431 676.992 820.211 680.853C831.378 680.78 846.161 680.283 857.074 680.808ZM865.432 688.533C865.594 692.902 866.535 700.054 860.831 701.172C855.822 699.633 856.464 693.053 856.715 689.084C854.147 688.145 825.014 688.891 820.157 688.914C820.183 692.845 820.777 700.844 815.22 701.329C810.692 698.869 811.187 693.022 811.328 688.608C799.736 688.486 788.143 688.493 776.552 688.63C776.927 692.931 778.187 699.913 772.493 701.244C767.173 699.783 768.17 692.804 768.368 688.623C756.858 688.541 743.083 688.329 731.662 688.775C731.832 692.614 732.604 700.844 727.077 701.66C721.597 700.239 722.543 692.995 722.884 688.845C708.813 687.632 699.911 693.479 699.636 708.156C699.377 722.05 699.718 736.054 699.825 749.949L699.912 842.014L699.617 872.506C699.57 877.541 699.784 884.417 699.472 889.204C700.163 918.493 720.319 914.436 741.597 914.263L789.134 913.959L840.723 914.044C849.815 914.089 859.195 914.356 868.237 913.814C877.228 913.276 887.963 903.079 888.393 893.994C888.882 883.656 888.654 872.886 888.653 862.462L888.605 799.619L888.553 738.559C888.566 728.026 888.808 717.501 888.431 706.975C887.906 692.284 878.169 689.275 865.432 688.533Z"/><defs><linearGradient id="gradient_7" gradientUnits="userSpaceOnUse" x1="718.53021" y1="843.25684" x2="748.54407" y2="887.35229"><stop offset="0" stop-color="#E104B7"/><stop offset="1" stop-color="#BD0FE2"/></linearGradient></defs><path fill="url(#gradient_7)" d="M715.814 844.735C721.234 844.474 750.927 843.467 753.601 846.222C755.843 852.97 754.541 874.807 754.797 882.796C754.858 884.695 753.621 885.411 752.373 886.358C747.004 886.698 717.216 887.481 713.942 884.865C712.643 881.516 712.865 852.273 713.635 846.74C713.821 845.399 714.792 845.177 715.814 844.735ZM721.448 852.965C721.389 861.211 721.198 869.878 721.462 878.084C730.397 878.559 737.77 878.08 746.524 878.132C746.585 870.454 746.323 860.363 746.761 852.955C738.614 852.934 729.519 852.709 721.448 852.965Z"/><path fill="#DA06B3" d="M714.238 785.57C721.026 785.425 749.463 784.105 753.612 787.134C754.65 787.892 754.83 790.224 754.932 791.431C755.171 794.277 755.291 821.772 754.776 823.552C754.445 824.696 753.838 825.458 753.081 826.342C743.857 827.678 724.228 827.09 714.853 826.02C711.902 825.683 712.468 789.207 714.238 785.57ZM721.198 818.495C728.518 818.684 738.74 819.179 745.938 818.489C746.96 817.076 746.519 797.005 746.501 793.509C738.121 793.389 729.739 793.37 721.358 793.452C721.307 801.229 721.534 810.87 721.198 818.495Z"/><defs><linearGradient id="gradient_8" gradientUnits="userSpaceOnUse" x1="719.12848" y1="725.22687" x2="747.83789" y2="767.96747"><stop offset="0" stop-color="#F50974"/><stop offset="1" stop-color="#EB029D"/></linearGradient></defs><path fill="url(#gradient_8)" d="M715.999 726.697C727.05 726.056 740.182 726.583 751.277 727.165C756.349 727.432 755.016 746.605 755.085 750.919C755.166 755.99 756.44 763.924 751.921 766.568C746.093 766.76 717.405 767.795 713.974 765.146C712.568 761.798 713.092 734.926 713.583 729.232C713.704 727.832 714.99 727.285 715.999 726.697ZM721.587 735.483C721.5 743.199 721.472 750.915 721.503 758.63C728.209 758.8 734.917 758.859 741.625 758.808L746.593 758.667L746.418 735.446C740.46 734.95 734.424 735.154 728.44 735.232L721.587 735.483Z"/><path fill="#B515E5" d="M772.36 874.255C802.88 873.867 833.718 874.217 864.249 874.393C866.253 874.405 867.944 875.01 869.269 876.546C870.101 879.744 868.583 881.171 865.888 882.556L796.8 882.543C788.236 882.536 779.132 882.743 770.633 882.223C768.13 882.07 765.962 875.828 772.36 874.255Z"/><path fill="#DA06B3" d="M770.707 785.595C787.529 784.575 807.805 785.869 824.983 785.466C837.971 785.671 851.092 785.109 864.054 785.727C869.609 785.992 871.147 789.937 866.616 793.858C857.03 793.835 771.979 794.21 770.023 793.024C769.165 792.504 768.578 791.373 768.511 790.398C768.371 788.378 769.429 787 770.707 785.595Z"/><path fill="#DA06B3" d="M769.593 756.088C800.276 754.896 832.41 756.751 863.219 756.242C868.472 756.155 871.498 759.223 867.576 763.934C858.484 764.831 772.784 764.613 770.454 763.839C769.449 763.505 768.565 762.393 768.292 761.401C767.733 759.367 768.519 757.754 769.593 756.088Z"/><path fill="#DA06B3" d="M770.575 815.648C775.253 815.414 782.323 815.758 787.208 815.771L819.813 815.674L849.264 815.521C853.252 815.499 865.058 814.644 867.757 816.753C869.484 819.664 868.502 821.679 866.356 823.853C858.617 823.453 848.936 823.729 841.074 823.756L798.38 823.921C790.156 823.958 781.684 824.176 773.46 823.775C768.155 823.516 766.097 819.674 770.575 815.648Z"/><path fill="#DA06B3" d="M809.775 726.724L845.262 726.565C851.547 726.551 857.939 726.397 864.2 726.828C867.993 727.09 870.738 729.811 868.258 733.49C867.131 734.16 866.013 734.694 864.658 734.648C848.525 734.099 832.157 735.163 816.049 734.82C801.146 734.923 785.89 735.436 771.077 734.599C768.545 734.456 767.575 731.408 768.508 729.137C772.773 725.529 780.604 726.595 786.037 726.623L809.775 726.724Z"/><path fill="#F0157F" d="M816.049 734.82C801.146 734.923 785.89 735.436 771.077 734.599C768.545 734.456 767.575 731.408 768.508 729.137C772.773 725.529 780.604 726.595 786.037 726.623L809.775 726.724C812.176 726.815 814.656 726.78 816.969 727.347C809.299 727.865 784.997 724.94 782.452 732.743C789.815 735.261 813.402 732.617 816.049 734.82Z"/><path fill="#B515E5" d="M772.86 845.247C803.216 844.689 835.426 845.504 865.919 845.532C868.315 845.534 869.173 848.913 868.674 851.07C866.92 852.719 867.663 852.205 865.172 852.821L798.484 852.923C790.396 852.977 780.626 853.634 772.602 852.923C770.911 852.773 769.41 851.656 768.461 850.181C768.132 848.242 768.171 848.342 768.934 846.489C770.591 845.202 770.45 845.592 772.86 845.247Z"/><defs><linearGradient id="gradient_9" gradientUnits="userSpaceOnUse" x1="709.72247" y1="681.2113" x2="798.45007" y2="820.18866"><stop offset="0" stop-color="#F80F70"/><stop offset="1" stop-color="#D800C6"/></linearGradient></defs><path fill="url(#gradient_9)" d="M811.555 680.37C811.476 676.323 810.866 670.016 815.999 668.7C821.396 669.623 820.431 676.992 820.211 680.853C831.378 680.78 846.161 680.283 857.074 680.808C857.253 683.14 857.807 687.25 856.715 689.084C854.147 688.145 825.014 688.891 820.157 688.914C820.183 692.845 820.777 700.844 815.22 701.329C810.692 698.869 811.187 693.022 811.328 688.608C799.736 688.486 788.143 688.493 776.552 688.63C776.927 692.931 778.187 699.913 772.493 701.244C767.173 699.783 768.17 692.804 768.368 688.623C756.858 688.541 743.083 688.329 731.662 688.775C731.832 692.614 732.604 700.844 727.077 701.66C721.597 700.239 722.543 692.995 722.884 688.845C708.813 687.632 699.911 693.479 699.636 708.156C699.377 722.05 699.718 736.054 699.825 749.949L699.912 842.014L699.617 872.506C699.57 877.541 699.784 884.417 699.472 889.204C698.103 883.075 699.53 884.988 693.015 882.403L692.524 882.948C692.651 884.242 692.876 885.126 692.4 886.324L691.537 886.109C690.712 847.208 691.496 805.515 691.478 766.43C691.506 754.333 691.46 742.236 691.342 730.14C691.083 703.75 687.618 680.786 722.925 680.437C723.101 676.042 722.359 672.267 726.918 669.992C732.632 670.227 731.993 676.366 731.969 680.528C744.247 680.655 756.526 680.662 768.804 680.551C768.731 676.24 767.952 671.621 772.526 669.436C778.458 669.61 777.421 676.358 777.23 680.463L811.555 680.37Z"/><defs><linearGradient id="gradient_10" gradientUnits="userSpaceOnUse" x1="422.1842" y1="135.91219" x2="596.59656" y2="342.40851"><stop offset="0" stop-color="#FC8400"/><stop offset="1" stop-color="#FA186D"/></linearGradient></defs><path fill="url(#gradient_10)" d="M483.906 124.45C491.852 94.7514 531.215 95.398 539.955 124.066C546.232 124.433 552.046 122.88 557.136 126.424C565.638 126.236 574.292 126.126 582.791 126.172C588.547 126.203 594.642 127.716 598.646 132.072C601.195 134.844 603.816 139.459 604.123 143.283C604.699 150.466 604.474 158.443 604.451 165.684L604.33 208.7C604.455 239.761 604.422 270.824 604.23 301.885C604.169 313.731 604.769 327.984 604.236 339.485C598.314 363.403 576.454 359.083 557.189 358.9C533.823 359.277 509.678 358.991 486.249 359.003L442.491 359.367C436.516 359.371 430.416 357.815 426.169 353.363C422.748 349.752 420.557 345.151 419.91 340.218C418.98 333.165 419.467 320.837 419.456 313.205L419.452 260.702L419.462 186.33C419.444 173.35 419.353 160.254 419.53 147.262C419.612 141.22 421.402 135.869 426.126 131.642C435.971 122.835 452.306 127.022 464.214 125.992C473.913 125.153 473.716 123.881 483.906 124.45ZM445.529 332.494C467.606 332.756 489.685 332.843 511.763 332.755C517.461 332.767 536.177 332.356 540.856 332.967C549.218 332.515 571.839 333.712 578.5 332.337L578.476 213.213L578.478 173.249C578.468 167.551 578.69 158.232 578.322 152.706C574.128 152.472 560.477 151.763 557.144 153.234C556.6 154.183 556.257 155.257 556.164 156.327C555.715 161.48 551.484 163.112 546.827 163.126C525.929 163.186 505.022 163.386 484.115 163.597C474.34 163.696 470.079 163.802 467.497 153.114C467.272 152.22 458.356 152.141 457.396 152.288C453.415 152.351 449.444 152.41 445.471 152.484L445.469 278.296C445.483 295.194 444.597 316.181 445.529 332.494ZM556.609 144.527C562.633 144.496 582.19 143.649 585.45 145.987C587.023 147.116 586.364 189.242 586.357 193.267L586.458 287.335C586.48 302.032 585.908 320.799 586.506 335.15C582.74 341.481 579.789 340.829 572.711 340.68C561.169 340.437 549.423 340.873 537.91 340.482C507.678 341.01 477.27 340.407 447.028 340.629C445.599 340.64 441.486 340.202 440.424 339.223C438.557 337.5 437.249 334.755 437.159 332.159C436.884 324.212 436.946 316.18 436.927 308.215L436.887 261.143L436.855 191.066C436.848 187.609 436.084 146.472 438.047 145.382C441.774 143.314 462.191 143.929 468.046 144.215L468.034 134.247C451.884 133.852 427.722 128.715 427.644 150.908L427.618 280.131L427.702 319.053C427.742 331.777 424.163 350.074 441.682 350.999C453.479 351.622 465.208 351.407 477.021 351.387C503.08 351.105 529.141 351.011 555.201 351.104C581.414 350.04 599.329 358.09 596.535 323.11C596.358 320.882 596.587 317.145 596.613 314.752L596.489 195.008L596.495 163.873C596.501 149.975 599.61 133.542 580.302 133.919C572.68 134.067 564.674 134.122 557.039 134.108C556.662 138.138 556.543 140.487 556.609 144.527ZM509.485 111.139C496.372 113.147 493.173 120.168 491.103 131.947C486.037 132.253 481.329 132.09 476.49 132.344C476.486 139.733 476.334 147.713 476.545 155.054L518.625 154.954C528.276 154.916 539.246 155.135 548.787 154.763C548.843 147.335 548.676 139.91 548.8 132.495C546.382 132.462 533.697 133.019 533.048 131.282C528.573 119.306 526.786 109.053 509.485 111.139Z"/><path fill="#FA453D" d="M544.122 190.25C547.816 190.159 557.452 189.254 560.902 191.022C564.704 193.546 561.77 198.081 558.122 198.265C547.908 198.781 537.334 198.562 527.125 198.582C521.982 198.468 514.986 199.251 510.02 198.134C508.697 197.836 508.211 196.848 507.621 195.722C507.567 194.439 507.401 193.758 508.339 192.725C512.004 188.685 537.958 190.253 544.122 190.25Z"/><path fill="#FA453D" d="M539.936 223.751C544.381 223.617 562.836 221.464 562.916 227.558C562.477 228.516 561.991 229.193 561.232 229.915C557.384 233.578 536.82 232.069 530.537 232.043C525.621 231.986 511.357 233.147 509.158 230.523C500.933 220.706 536.834 223.77 539.936 223.751Z"/><path fill="#FA453D" d="M512.879 256.75C520.153 256.723 555.586 255.53 559.55 257.585C560.626 258.143 561.466 258.948 561.723 260.177C562.025 261.629 561.601 262.523 560.939 263.734C559.499 264.915 559.408 264.807 557.625 265.123C543.254 264.715 525.197 265.824 510.802 264.494C509.341 264.359 508.528 263.161 507.889 262.023C507.938 258.423 509.743 257.416 512.879 256.75Z"/><path fill="#F83151" d="M511.066 291.194C516.685 290.878 543.499 288.657 543.172 295.767C542.244 297.493 541.485 297.838 539.902 298.97C534.08 299.619 511.676 301.108 507.873 296.332C507.289 293.279 508.319 292.186 511.066 291.194Z"/><path fill="#FA453D" d="M490.907 248.567C492.639 248.997 492.52 248.954 493.891 250.108C494.324 251.212 494.733 252.071 494.186 253.366C492.054 258.41 482.056 267.583 477.688 270.085C474.658 267.606 473.52 266.281 471.008 263.313C468.707 261.065 466.476 259.176 467.915 255.701C472.327 252.335 475.6 256.547 478.339 259.666C481.747 255.687 485.88 250.121 490.907 248.567Z"/><path fill="#FA453D" d="M488.999 181.363C490.624 181.165 492.238 181.951 493.521 182.872C496.15 188.854 483.161 198.49 478.546 201.148C476.469 199.764 474.247 197.601 472.359 195.896C469.681 193.359 466.9 191.133 468.099 187.039C472.091 182.917 476.482 187.453 479.492 190.204C482.591 187.182 485.761 184.234 488.999 181.363Z"/><path fill="#FA453D" d="M489.763 214.864C502.635 216.089 483.175 233.817 478.947 234.844C477.53 235.189 474.524 232.039 473.63 231.198C470.722 228.08 467.992 225.926 468.914 221.317C472.154 217.569 476.648 221.973 479.166 224.436C482.982 220.675 485.247 217.836 489.763 214.864Z"/><path fill="#FA453D" d="M490.731 282.932C492.461 283.274 492.335 283.266 493.695 284.416C494.1 285.36 494.425 285.645 494.257 286.57C493.457 290.982 481.713 301.276 478.421 303.936C475.214 301.834 473.867 300.488 471.097 297.855C468.755 295.529 466.102 293.427 468.04 289.827C472.04 286.331 475.65 290.823 478.088 293.582C482.142 289.511 485.564 285.422 490.731 282.932Z"/><path fill="#F0157F" d="M596.613 314.752C596.696 312.71 597.025 302.021 597.491 300.621C597.633 304.31 597.403 318.998 598.928 320.953L599.302 321.442C604.099 327.638 601.207 334.902 604.236 339.485C598.314 363.403 576.454 359.083 557.189 358.9L554.527 358.423L554.277 358.061C559.221 357.425 563.401 358.322 567.071 358.069C566.781 351.943 553.386 352.142 548.614 351.933C548.913 351.616 554.283 351.198 555.201 351.104C581.414 350.04 599.329 358.09 596.535 323.11C596.358 320.882 596.587 317.145 596.613 314.752Z"/><path fill="#F0157F" d="M578.5 332.337C582.559 332.099 583.146 332.834 586.506 335.15C582.74 341.481 579.789 340.829 572.711 340.68C561.169 340.437 549.423 340.873 537.91 340.482C542.095 339.489 543.225 340.715 547.242 337.897L547.475 336.522C545.215 333.777 544.032 333.774 540.856 332.967C549.218 332.515 571.839 333.712 578.5 332.337Z"/><defs><linearGradient id="gradient_11" gradientUnits="userSpaceOnUse" x1="691.74695" y1="428.30756" x2="896.46539" y2="618.89014"><stop offset="0" stop-color="#FF2643"/><stop offset="1" stop-color="#CA0DD0"/></linearGradient></defs><path fill="url(#gradient_11)" d="M714.88 432.496C714.768 428.367 714.202 425.509 718.279 423.232C724.056 423.025 723.651 428.456 723.753 432.574C735.791 433.173 751.102 433.021 763.256 432.962C763.075 429.145 762.886 424.718 767.127 423.254C772.271 423.598 772.269 429.371 772.533 433.233C785.849 432.658 802.757 432.848 816.214 432.926C816.212 428.547 815.621 425.433 820.075 423.349C825.494 423.544 824.767 428.685 824.606 432.526L868.04 432.506C868.065 429.853 867.87 423.073 872.508 423.141C877.21 423.209 877.044 429.27 877.015 432.772C879.52 432.627 882.028 432.517 884.537 432.442C893.11 432.195 900.605 432.758 907.187 439.263C910.089 442.125 912.171 445.713 913.214 449.653C914.74 455.342 914.064 480.772 913.953 488.162C914.807 517.082 913.618 546.363 914.379 575.482C914.779 590.791 915.442 609.029 896.326 614.364C887.954 616.295 873.236 615.486 864.155 615.484L812.428 615.38L784.721 615.268L726.16 615.125C715.934 615.129 705.351 615.497 695.201 614.669C682.969 613.672 673.797 602.513 673.632 590.552C673.487 580.062 673.565 569.577 673.58 559.088L673.552 503.012L673.49 471.13C673.484 467.314 673.302 457.428 673.868 454.09C674.774 448.935 677.186 444.164 680.802 440.38C690.014 430.85 702.792 432.621 714.88 432.496ZM792.301 606.911C800.514 606.428 810.822 606.757 819.202 606.796L864.807 606.96C872.519 606.983 885.107 607.703 892.454 606.337C907.857 603.473 906.118 587.865 905.865 576.084C905.752 570.772 905.82 564.78 905.823 559.189L905.515 478.448C896.332 477.817 884.99 478.04 875.673 478.002L824.211 477.877C776.786 477.63 729.361 477.669 681.937 477.994C681.664 503.555 681.536 529.118 681.555 554.681C681.55 562.991 681.098 585.869 682.04 592.654C682.519 596.106 684.09 599.313 686.523 601.808C693.507 608.847 707.749 606.834 717.241 606.834L765.556 606.877C770.914 606.842 787.519 606.355 792.301 606.911ZM824.971 440.514C825.083 444.993 826.311 459.013 819.807 459.135C814.941 456.064 816.185 445.857 816.339 440.587L772.255 440.603C772.175 443.698 772.128 446.831 772.221 449.926C772.361 454.615 772.225 457.663 767.22 459.546C761.614 459.097 763.273 444.525 763.399 440.567C750.75 440.501 736.219 440.187 723.709 440.604C723.822 445.324 726.104 464.037 716.478 457.461C714.551 456.145 714.986 443.703 714.936 440.755C709.852 440.684 704.55 440.521 699.487 440.732C680.727 443.273 681.806 454.716 681.64 469.894L905.382 470.021C905.429 447.627 905.684 438.97 878.943 440.521C877.634 440.597 878.261 440.441 877.079 440.994L876.977 441.456C877.146 446.204 878.385 457.035 873.17 459.178C867.178 457.504 868.282 445.402 868.334 440.501L824.971 440.514Z"/><path fill="#DA06B3" d="M819.093 516.722C826.488 516.46 871.92 515.375 875.688 517.379C876.851 517.997 877.42 518.964 877.649 520.235C877.869 521.455 877.401 522.597 876.767 523.602C875.067 524.802 875.178 524.779 873.125 525.025C864.294 525.009 820.381 526.427 816.848 524.526C815.733 523.926 814.796 522.705 814.451 521.483C814.09 520.205 814.51 519.349 815.144 518.279C816.705 517.026 817.039 517.093 819.093 516.722Z"/><path fill="#DA06B3" d="M838.263 578.244C844.708 578.2 876.385 575.551 878.063 582.519C876.994 585.876 874.95 586.506 871.701 586.512C866.526 586.52 861.299 586.428 856.125 586.379C850.2 586.374 819.228 587.147 816.139 585.748C814.003 583.637 813.949 581.882 815.856 579.575C819.655 577.554 833.197 578.233 838.263 578.244Z"/><path fill="#DA06B3" d="M868.038 557.738C871.434 557.64 874.906 557.072 877.638 558.91C878.599 560.527 878.601 560.392 878.63 562.259C877.679 564.763 876.126 565.65 873.526 565.839C868.381 566.212 862.896 566.056 857.738 566.03L826.716 565.754C823.146 565.884 819.361 566.431 816.23 564.922C814.53 562.872 814.43 560.771 816.233 558.769C820.64 557.026 860.101 557.903 868.038 557.738Z"/><path fill="#F0157F" d="M816.657 537.565C833.618 536.594 851.855 537.931 868.941 537.335C871.93 537.231 875.061 537.233 877.453 539.15C878.907 542.18 878.053 543.327 875.569 545.176C857.339 546.159 837.953 544.855 819.623 545.342C814.38 545.481 812.559 541.343 816.657 537.565Z"/><path fill="#F0157F" d="M816.659 496.594C823.382 496.103 873.889 495.469 876.816 497.6C877.98 498.447 878 499.019 878.237 500.331C877.734 502.366 877.528 502.431 875.948 503.945C857.523 504.962 837.408 503.487 818.854 503.989C814.6 504.103 812.975 499.948 816.659 496.594Z"/><path fill="#F0157F" d="M732.07 578.122C745.965 577.401 762.16 578.093 776.196 578.179C780.717 578.207 782.133 582.781 778.048 586.265C769.535 587.134 759.359 586.184 750.641 586.545C746.71 586.708 732.997 587.248 730.598 585.211C729.047 582.505 729.725 580.039 732.07 578.122Z"/><path fill="#F0157F" d="M743.847 496.754C750.638 496.684 778.636 494.046 780.825 500.495C779.821 505.815 771.24 504.68 766.712 504.839C760.51 504.932 730.725 507.628 729.048 501.31C730.609 495.394 739.112 496.708 743.847 496.754Z"/><path fill="#F0157F" d="M731.578 517.129C738.937 516.841 774.25 515.949 778.839 518.314C781.07 521.182 780.008 522.802 777.643 524.974C771.441 525.205 734.314 525.878 731.606 524.561C730.68 524.11 729.849 523.011 729.708 522.002C729.417 519.937 730.332 518.657 731.578 517.129Z"/><path fill="#F0157F" d="M733.569 557.711C741.89 557.785 750.211 557.76 758.532 557.638C764.109 557.558 775.057 556.479 779.282 559.754C780.622 562.658 778.96 564.243 776.494 565.577C763.026 565.488 745.681 566.233 731.943 565.247C729.687 565.085 728.797 561.724 729.663 559.295C731.394 557.797 731.02 558.249 733.569 557.711Z"/><path fill="#F0157F" d="M730.759 537.58C744.379 536.491 761.371 537.868 775.242 537.527C779.082 537.433 781.308 541.481 777.536 544.945C772.931 545.522 760.211 545.028 754.96 545.066C750.122 545.101 735.654 545.533 731.598 544.886C728.66 542.581 729.426 540.655 730.759 537.58Z"/><path fill="#F0157F" d="M708.862 557.691C713.252 557.485 716.516 556.951 719.898 560.484C720.989 563.595 719.172 564.737 716.495 566.071C712.533 566.112 701.308 567.214 705.064 559.465C706.576 558.143 706.836 558.184 708.862 557.691Z"/><path fill="#F0157F" d="M709.414 577.661C713.123 577.52 721.841 578.307 719.592 584.101C717.923 585.675 717.699 585.847 715.499 586.469C711.077 586.474 707.032 587.206 704.273 582.748C703.953 579.457 706.63 578.384 709.414 577.661Z"/><path fill="#F83151" d="M707.191 517.169C710.814 516.857 720.561 516.085 720.124 521.628C718.908 523.501 718.84 523.55 716.97 524.829C713.08 525.566 704.561 526.541 704.35 520.76C705.316 518.668 705.343 518.596 707.191 517.169Z"/><path fill="#F83151" d="M707.206 537.664C711.534 537.221 715.463 536.644 719.3 539.043C721.095 541.929 719.124 543.408 716.867 545.239C713.189 545.581 704.162 546.376 704.341 540.702C705.407 538.776 705.349 538.88 707.206 537.664Z"/><path fill="#F0157F" d="M707.099 497.225C710.982 496.957 715.514 496.432 718.654 499.17C721.189 501.381 717.927 504.29 716.249 505.468C715.489 505.503 714.728 505.525 713.966 505.533C710.469 505.556 703.335 505.41 704.627 499.762C704.955 498.328 705.93 497.871 707.099 497.225Z"/><path fill="#F0157F" d="M795.517 577.652C799.749 577.784 801.742 577.941 804.251 581.587C804.702 585.089 802.636 585.678 799.668 586.469C795.225 586.453 792.645 587.041 790.053 582.665C789.924 579.021 792.438 578.389 795.517 577.652Z"/><path fill="#F0157F" d="M793.202 517.138C797.598 516.677 799.819 516.258 803.411 519.133C804.812 522.168 802.902 523.534 800.453 525.088C796.667 525.587 790.015 525.511 790.175 520.255C791.217 518.351 791.314 518.324 793.202 517.138Z"/><path fill="#F0157F" d="M792.689 496.624C797.698 495.936 809.49 496.644 801.664 503.885C798.248 504.06 790.093 505.007 789.829 500.032C790.798 497.961 790.85 497.914 792.689 496.624Z"/><path fill="#F0157F" d="M795.028 537.166C799.241 537.089 801.328 536.776 803.959 540.365C804.211 542.237 804.369 541.367 803.403 543.053C801.561 544.295 801.478 544.304 799.253 544.7C794.996 545.071 793.149 545.603 790.237 542.023C789.569 538.502 792.105 537.808 795.028 537.166Z"/><path fill="#F0157F" d="M792.662 558.12C796.122 557.935 803.957 557.143 803.782 562.2C802.787 564.061 802.49 564.143 800.729 565.438C797.269 566.181 790.454 566.136 790.1 561.413C790.933 559.361 790.883 559.472 792.662 558.12Z"/><defs><linearGradient id="gradient_12" gradientUnits="userSpaceOnUse" x1="718.5152" y1="136.15985" x2="869.26849" y2="343.35794"><stop offset="0" stop-color="#FD532E"/><stop offset="1" stop-color="#EF0B93"/></linearGradient></defs><path fill="url(#gradient_12)" d="M789.547 130.254C798.188 130.104 807.386 128.902 814.008 135.496C819.949 141.41 819.175 148.898 819.09 156.523C835.689 157.532 888.505 154.15 899.993 159.155C906.546 162.011 911.489 167.555 913.915 174.241C914.842 176.792 915.429 179.454 915.661 182.158C916.088 186.951 916.395 223.872 915.086 226.076C913.251 229.167 908.113 229.701 904.943 230.502C904.465 235.475 904.848 246.549 904.883 252.115L904.986 290.276C905.004 298.15 905.444 306.555 903.726 314.247C902.336 320.471 894.495 328.764 888.115 329.685C878.04 331.139 866.678 330.536 856.371 330.522L797.434 330.423L729.792 330.499C719.172 330.504 708.121 330.927 697.604 329.905C690.844 329.248 681.301 320.115 680.217 313.446C679.02 306.074 679.56 297.605 679.519 290.033C679.415 270.83 679.859 251.55 679.246 232.355C676.656 231.546 673.316 230.848 671.307 229.273C669.839 226.207 670.489 216.14 670.499 212.102C670.346 204.445 670.827 196.215 670.484 188.616C669.861 174.826 676.038 161.909 690.081 157.887C698.006 155.618 709.091 156.63 717.56 156.496C731.135 156.28 744.93 156.787 758.579 156.477C758.529 154.354 758.491 152.231 758.466 150.107C758.356 129.744 774.572 130.2 789.547 130.254ZM907.64 221.047C907.711 213.305 907.875 205.439 907.838 197.784C907.791 187.897 909.328 177.74 901.875 169.971C895.843 163.682 887.475 164.464 879.538 164.487L789.941 164.68L760.628 164.68C756.43 164.674 749.323 164.91 745.312 164.566C740.559 164.961 732.723 164.795 727.794 164.776C720.487 164.747 711.336 164.982 704.16 164.378C693.509 164.764 681.292 168.03 679.83 179.79C678.383 191.438 677.818 210.515 678.594 222.072L678.652 222.865C684.027 225.387 691.434 227.682 697.141 229.647L732.729 241.659L760.203 251.183C765.343 253 772.458 255.814 777.496 256.945C777.903 247.219 775.096 234.662 781.885 228.349C784.82 225.673 788.72 224.309 792.683 224.572C796.6 224.8 800.25 226.627 802.78 229.626C807.836 235.738 805.763 247.227 806.155 255.344C814.081 254.445 825.258 249.583 832.983 246.737C857.627 237.656 883.16 230.478 907.64 221.047ZM789.433 232.509C788.167 233.576 785.438 235.584 785.601 238.468C786.175 248.638 783.616 266.432 787.245 275.368C787.752 276.616 792.588 277.118 794.129 277.091C795.423 276.451 797.684 275.349 797.763 273.659C798.324 261.636 798.599 248.94 797.705 236.953C797.432 233.303 792.445 232.363 789.433 232.509ZM687.723 235.42C687.902 247.818 687.883 260.219 687.667 272.617C687.611 284.469 686.827 298.367 688.238 309.944C690.229 326.272 711.498 322.664 722.785 322.605L765.793 322.508L836.991 322.733C852.825 322.79 869.158 323.218 884.884 321.929C888.025 321.672 889.246 320.561 891.477 318.376C898.42 311.57 896.617 299.771 896.64 290.293L896.707 255.304C896.71 253.148 896.954 234.631 896.432 233.625C876.289 239.563 855.677 248.03 835.569 254.547C825.987 257.653 816.388 262.443 806.587 264.891C806.588 268.135 806.798 271.377 805.91 274.512C804.153 280.718 798.969 285.53 792.304 285.557C788.389 285.538 784.654 283.907 781.978 281.049C778.008 276.845 776.878 271.228 777.044 265.626L719.723 246.356C710.857 243.297 696.399 237.767 687.723 235.42ZM778.737 138.241C765.683 138.96 766.246 145.685 766.215 156.686L798.625 156.59C802.157 156.634 807.156 156.829 810.527 156.477C811.237 148.564 811.893 143.615 804.625 138.782L804.348 138.595C797.666 137.835 785.902 138.209 778.737 138.241Z"/><path fill="#FA453D" d="M704.16 164.378C706.749 163.473 706.699 164.371 709.571 162.819L709.767 164.105L710.501 163.809C710.935 161.147 710.435 161.152 711.986 159.94C714.243 159.504 723.274 160.181 724.974 161.481C725.026 167.027 742.87 162.107 745.312 164.566C740.559 164.961 732.723 164.795 727.794 164.776C720.487 164.747 711.336 164.982 704.16 164.378Z"/><defs><linearGradient id="gradient_13" gradientUnits="userSpaceOnUse" x1="137.7894" y1="421.68207" x2="278.6467" y2="519.94574"><stop offset="0" stop-color="#FC8700"/><stop offset="1" stop-color="#FB5034"/></linearGradient></defs><path fill="url(#gradient_13)" d="M184.74 446.754C185.05 435.86 182.384 420.723 190.189 412.403C194.529 407.777 198.911 405.786 205.181 405.813C216.929 405.862 228.441 405.695 240.22 405.843C248.347 405.946 258.222 405.373 266.155 406.731C269.235 407.538 271.573 409.322 273.827 411.43C280.057 417.254 280.537 425.012 280.184 432.959C279.987 437.383 280.108 442.046 280.143 446.513L311.923 446.617C328.84 446.322 354.227 442.803 354.352 467.081C354.39 474.322 355.711 503.286 353.692 508.341C352.149 509.602 347.099 509.579 345.017 509.531C320.063 508.954 294.154 510.621 269.3 509.533C263.829 510.149 246.063 509.856 240.035 509.807C223.354 509.637 206.673 509.551 189.992 509.549L140.08 509.539C131.238 509.568 119.937 510.294 111.521 509.136C110.371 508.014 109.825 504.952 109.921 503.356C110.658 491.165 108.741 474.274 110.399 462.548C112.924 444.697 134.817 446.908 148.448 446.892C160.545 446.918 172.643 446.873 184.74 446.754ZM118.494 501.453L217.214 501.473L245.807 501.349C249.295 501.327 257.862 501.086 260.869 501.456C266.669 501.006 276.041 501.312 282.183 501.333C295.206 501.384 308.228 501.348 321.25 501.225C329.043 501.197 338.606 501.479 346.224 500.898C346.651 489.676 346.779 476.264 345.722 465.163C344.384 451.106 323.496 454.687 313.379 454.486C298.736 454.923 284.018 454.686 269.365 455.084C265.772 455.182 257.498 455.669 254.864 453.361C253.333 449.514 254.07 438.1 254.021 433.371C244.222 433.027 220.937 432.767 211.468 433.483C211.541 437.998 213.05 450.523 210.092 453.971C206.374 458.304 130.713 452.403 123.492 456.922C119.072 459.688 118.473 464.936 118.342 469.692C118.052 480.21 118.219 490.932 118.494 501.453ZM192.585 446.552C196.125 446.637 199.452 446.736 202.995 446.599C202.907 441.846 201.876 429.576 204.829 426.26C206.892 425.355 208.879 424.954 211.112 424.765C217.043 424.263 255.913 423.844 259.561 425.324C259.891 425.458 260.212 425.614 260.533 425.77C263.045 430.997 261.836 440.827 262.008 447.081C265.079 447.116 269.056 447.266 272.052 447.077C272.124 438.404 273.94 423.617 267.902 417.573C266.307 415.951 264.249 414.863 262.01 414.459C258.76 413.902 244.224 414.163 240.286 414.219C228.37 414.388 216.02 414.011 204.164 414.228C189.419 416.385 192.905 434.91 192.585 446.552Z"/><path fill="#FA453D" d="M311.923 446.617C328.84 446.322 354.227 442.803 354.352 467.081C354.39 474.322 355.711 503.286 353.692 508.341C352.149 509.602 347.099 509.579 345.017 509.531C320.063 508.954 294.154 510.621 269.3 509.533C272.292 508.486 275.35 508.786 278.626 508.726C277.456 500.798 265.785 502.885 260.869 501.456C266.669 501.006 276.041 501.312 282.183 501.333C295.206 501.384 308.228 501.348 321.25 501.225C329.043 501.197 338.606 501.479 346.224 500.898C346.651 489.676 346.779 476.264 345.722 465.163C344.384 451.106 323.496 454.687 313.379 454.486C315.246 454.09 323.592 453.322 325.261 453.698C323.598 446.206 318.525 447.551 311.923 446.617Z"/><defs><linearGradient id="gradient_14" gradientUnits="userSpaceOnUse" x1="478.52536" y1="479.26379" x2="574.04846" y2="547.43207"><stop offset="0" stop-color="#FA552C"/><stop offset="1" stop-color="#F10C91"/></linearGradient></defs><path fill="url(#gradient_14)" d="M520.693 454.098C553.514 450.872 582.729 474.883 585.919 507.707C589.11 540.532 565.067 569.72 532.239 572.875C499.462 576.025 470.329 552.027 467.143 519.253C463.957 486.479 487.923 457.32 520.693 454.098ZM477.14 500.035C470.314 525.414 483.795 551.843 508.347 561.215C532.899 570.588 560.562 559.866 572.385 536.395C584.207 512.923 576.354 484.313 554.207 470.164C532.06 456.016 502.8 460.916 486.471 481.509C482.13 486.984 478.955 493.288 477.14 500.035Z"/><path fill="#FA453D" d="M477.14 500.035C476.218 498.149 477.71 496.139 477.996 493.984C477.021 494.178 477.521 494.16 476.494 494.015C476.186 491.212 478.428 484.319 481.32 483.251L482.544 484.775C484.754 483.459 483.544 482.819 486.471 481.509C482.13 486.984 478.955 493.288 477.14 500.035Z"/><path fill="#FB7118" d="M226.778 611.42C224.062 611.626 220.76 611.487 218.019 611.485C193.748 611.468 168.933 611.655 144.712 611.418C136.326 611.336 126.895 606.321 125.82 598.26C124.622 589.282 123.447 524.396 126.866 521.53C131.554 520.539 159.341 521.029 165.623 520.997L226.813 520.82C237.149 520.827 247.56 520.793 257.895 520.944C259.236 521.069 260.923 520.86 261.999 521.844C264.489 524.121 263.827 526.312 262.009 528.514C257.376 530.061 224.122 529.41 217.525 529.413L133.555 529.553C134.241 550.906 132.738 573.149 133.773 594.54C133.974 598.698 137.76 602.554 142.144 602.792C150.793 603.262 159.631 602.996 168.363 602.958L212.459 602.825C220.248 602.813 229.754 602.567 237.42 602.952C247.461 605.839 293.186 600.965 299.085 604.791C299.907 606.865 299.853 608.526 299.999 610.755C276.449 610.807 249.898 608.935 226.778 611.42Z"/><defs><linearGradient id="gradient_15" gradientUnits="userSpaceOnUse" x1="403.53046" y1="462.40466" x2="540.29462" y2="506.0773"><stop offset="0" stop-color="#FA6B1D"/><stop offset="1" stop-color="#F6186B"/></linearGradient></defs><path fill="url(#gradient_15)" d="M476.786 402.684C477.493 402.599 478.037 402.538 478.749 402.493C501.762 400.957 524.407 408.867 541.458 424.399C545.792 428.327 563.797 445.13 558.267 450.894C552.442 452.164 546.796 442.108 543.273 438.173C533.994 427.809 522.561 419.291 509.296 414.835C489.828 408.396 468.594 410.005 450.319 419.305C410.618 439.531 395.949 485.627 416.277 525.198C427.259 544.623 443.03 557.017 464.717 563.244C469.879 564.805 475.288 564.455 480.424 566.12C485.493 567.701 485.188 573.876 479.616 574.018C463.803 574.423 444.036 565.838 431.994 556.405C413.54 541.909 401.679 520.61 399.074 497.289C398.192 489.663 398.594 483.369 399.726 475.807C405.615 436.465 437.449 407.21 476.786 402.684Z"/><path fill="#F0157F" d="M591.424 548.488C597.035 550.867 618.259 575.894 624.734 580.814C626.158 581.896 629.788 586.064 630.76 587.581C627.843 591.433 608.186 611.263 604.746 612.828C602.109 611.386 567.722 577.026 565.812 573.843C568.322 570.409 588.075 550.645 591.424 548.488ZM577.684 574.191C586.351 583.296 596.378 593.88 605.602 602.256C610.032 596.843 613.735 592.133 618.876 587.351C615.993 583.399 595.834 562.993 591.647 559.891C588.101 562.94 580.394 570.485 577.684 574.191Z"/><path fill="#F83151" d="M332.534 529.415C317.603 528.757 302.697 529.418 287.771 529.076C283.492 528.978 280.381 525.944 283.068 522.092C284.081 521.531 285.057 521.065 286.549 521.119C303.814 521.739 321.478 520.55 338.634 521.311C339.138 521.536 340.356 521.918 340.393 522.541C341.781 546.194 340.412 570.316 340.417 594.081C340.418 600.786 333.615 609.038 327.202 610.237C312.166 613.05 295.521 610.8 280.197 611.533C262.744 611.436 243.816 611.996 226.778 611.42C249.898 608.935 276.449 610.807 299.999 610.755C299.853 608.526 299.907 606.865 299.085 604.791C293.186 600.965 247.461 605.839 237.42 602.952C262.732 601.831 289.088 603.403 314.511 602.895C322.486 602.736 330.158 604.15 332.09 593.786C333.007 586.792 332.566 578.81 332.567 571.689L332.534 529.415Z"/></svg>