<svg width="1200" height="630" xmlns="http://www.w3.org/2000/svg">
  <rect width="1200" height="630" fill="#0a0a0a"/>
  <!-- Grid lines -->
  <g stroke="rgba(255,255,255,0.03)" stroke-width="1">
    <line x1="0" y1="105" x2="1200" y2="105"/>
    <line x1="0" y1="210" x2="1200" y2="210"/>
    <line x1="0" y1="315" x2="1200" y2="315"/>
    <line x1="0" y1="420" x2="1200" y2="420"/>
    <line x1="0" y1="525" x2="1200" y2="525"/>
    <line x1="200" y1="0" x2="200" y2="630"/>
    <line x1="400" y1="0" x2="400" y2="630"/>
    <line x1="600" y1="0" x2="600" y2="630"/>
    <line x1="800" y1="0" x2="800" y2="630"/>
    <line x1="1000" y1="0" x2="1000" y2="630"/>
  </g>
  <!-- Accent dot -->
  <circle cx="90" cy="200" r="4" fill="#7dd3fc" opacity="0.6"/>
  <circle cx="1110" cy="430" r="3" fill="#7dd3fc" opacity="0.4"/>
  <circle cx="600" cy="525" r="2" fill="#7dd3fc" opacity="0.3"/>
  <!-- KIKA badge -->
  <rect x="90" y="180" width="72" height="28" rx="2" fill="#e5e7eb"/>
  <text x="126" y="200" font-family="system-ui, -apple-system, sans-serif" font-size="16" font-weight="700" fill="#0a0a0a" text-anchor="middle">AKA</text>
  <text x="172" y="200" font-family="system-ui, -apple-system, sans-serif" font-size="16" font-weight="700" fill="#e5e7eb" letter-spacing="0.2em">KIKA</text>
  <!-- Main title -->
  <text x="90" y="300" font-family="system-ui, -apple-system, sans-serif" font-size="72" font-weight="800" fill="white" letter-spacing="-0.03em">Digital Craft</text>
  <text x="90" y="380" font-family="system-ui, -apple-system, sans-serif" font-size="28" fill="#9ca3af" letter-spacing="0.05em">macOS systems · AI experiments · digital tools</text>
  <!-- URL -->
  <text x="90" y="540" font-family="'Fira Code', monospace" font-size="14" fill="#6b7280">akakika.com</text>
  <!-- Bottom line -->
  <rect x="90" y="560" width="120" height="1" fill="#7dd3fc" opacity="0.4"/>
</svg>